<?xml version="1.0" encoding="UTF-8" standalone="no"?>
<!DOCTYPE svg PUBLIC "-//W3C//DTD SVG 1.1//EN" "http://www.w3.org/Graphics/SVG/1.1/DTD/svg11.dtd">
<svg version="1.1" xmlns="http://www.w3.org/2000/svg" xmlns:xlink="http://www.w3.org/1999/xlink" preserveAspectRatio="xMidYMid meet" viewBox="0 0 640 640" width="10" height="10"><defs><path d="M502.86 0C594.29 0 640 45.71 640 137.14C640 356.57 640 478.48 640 502.86C640 594.29 594.29 640 502.86 640C283.43 640 161.52 640 137.14 640C45.71 640 0 594.29 0 502.86C0 283.43 0 161.52 0 137.14C0 45.71 45.71 0 137.14 0C356.57 0 478.48 0 502.86 0Z" id="adRlrAYVV"></path><path d="M550.79 345.87C541.92 345.87 497.61 345.87 417.84 345.87C417.84 175.47 417.84 80.81 417.84 61.88C417.84 55.61 412.4 50.52 405.7 50.52C386.29 50.52 230.99 50.52 211.58 50.52C204.88 50.52 199.44 55.61 199.44 61.88C199.44 80.81 199.44 175.48 199.44 345.87C119.37 345.87 74.88 345.87 65.98 345.87C61.08 345.87 56.66 348.64 54.77 352.87C52.9 357.12 53.92 362 57.39 365.25C81.6 387.99 275.24 569.89 299.44 592.62C301.72 594.76 304.81 595.96 308.03 595.96C311.26 595.96 314.34 594.76 316.62 592.65C340.9 569.91 535.1 388.01 559.38 365.27C562.85 362.02 563.89 357.14 562 352.89C560.11 348.64 555.69 345.87 550.79 345.87Z" id="bHHZ5KIJn"></path></defs><g><g><g><use xlink:href="#adRlrAYVV" opacity="1" fill="#ec174f" fill-opacity="1"></use><g><use xlink:href="#adRlrAYVV" opacity="1" fill-opacity="0" stroke="#000000" stroke-width="1" stroke-opacity="0"></use></g></g><g><use xlink:href="#bHHZ5KIJn" opacity="1" fill="#ffffff" fill-opacity="1"></use><g><use xlink:href="#bHHZ5KIJn" opacity="1" fill-opacity="0" stroke="#000000" stroke-width="1" stroke-opacity="0"></use></g></g></g></g></svg>